<?xml version="1.0" standalone="no"?>
<!DOCTYPE svg PUBLIC "-//W3C//DTD SVG 20010904//EN"
 "http://www.w3.org/TR/2001/REC-SVG-20010904/DTD/svg10.dtd">
<svg version="1.0" xmlns="http://www.w3.org/2000/svg"
 width="401.000000pt" height="401.000000pt" viewBox="0 0 401.000000 401.000000"
 preserveAspectRatio="xMidYMid meet">
<metadata>
Created by potrace 1.11, written by Peter Selinger 2001-2013
</metadata>
<g transform="translate(0.000000,401.000000) scale(0.100000,-0.100000)"
fill="#000000" stroke="none">
<path d="M1579 3975 c-774 -173 -1363 -762 -1533 -1535 -14 -63 -29 -153 -35
-200 -13 -119 -6 -406 13 -525 89 -564 410 -1060 888 -1372 53 -34 99 -63 102
-63 3 0 27 -13 53 -28 159 -93 474 -193 691 -218 106 -13 373 -12 486 1 653
76 1239 487 1541 1081 106 208 183 467 203 674 9 101 9 357 -1 455 -30 300
-165 659 -343 911 -106 149 -174 226 -338 380 -79 73 -295 215 -426 279 -92
45 -235 102 -235 94 0 -1 -9 3 -21 9 -11 6 -56 20 -100 32 -168 45 -225 50
-539 49 -277 -1 -308 -3 -406 -24z"/>
</g>
</svg>
